<?xml version="1.0" encoding="UTF-8"?>
<svg
  width="1600" height="420" viewBox="0 0 1600 420"
  xmlns="http://www.w3.org/2000/svg"
  xmlns:xlink="http://www.w3.org/1999/xlink"   <!-- add this -->
  role="img" aria-label="Matrix-style banner">

  <defs>
    <!-- Neon green glow -->
    <filter id="green-glow" x="-100%" y="-100%" width="300%" height="300%">
      <feGaussianBlur stdDeviation="3" result="blur"/>
      <feMerge>
        <feMergeNode in="blur"/>
        <feMergeNode in="SourceGraphic"/>
      </feMerge>
    </filter>

    <!-- Subtle scanlines -->
    <pattern id="scan" patternUnits="userSpaceOnUse" width="4" height="4">
      <rect width="4" height="1" fill="#00ff00" opacity="0.05"/>
    </pattern>

    <style>
      /* Global */
      .bg { fill: #000; }
      .scanlines { fill: url(#scan); }
      .title, .subtitle {
        font-family: "IBM Plex Mono", "JetBrains Mono", ui-monospace, Menlo, Consolas, monospace;
        paint-order: stroke fill; stroke:#003300;
      }
      .title   { fill:#d1ffe5; font-size:64px; font-weight:900; stroke-width:3px; letter-spacing:.5px; }
      .subtitle{ fill:#8affc7; font-size:28px; font-weight:800; stroke-width:2.5px; letter-spacing:.25px; }

      /* Rain */
      .col text { fill:#00ff7b; opacity:.8; }
      .head     { fill:#b4ffd8; opacity:1; } /* brighter leading glyph */

      @keyframes fall {
        0%   { transform: translateY(-120%); opacity: 0.0; }
        5%   { opacity: 0.9; }
        100% { transform: translateY(120%); opacity: 0.0; }
      }
      .rain { filter:url(#green-glow); }
      .col  { animation: fall linear infinite; will-change: transform, opacity; }

      /* Vary speeds for depth */
      .s1 { animation-duration: 6s; }
      .s2 { animation-duration: 7.5s; }
      .s3 { animation-duration: 9s; }
      .s4 { animation-duration: 11s; }
      .s5 { animation-duration: 13s; }

      /* Pixel hinting */
      text { shape-rendering: optimizeSpeed; }
    </style>
  </defs>

  <!-- Background + scanlines -->
  <rect class="bg" width="1600" height="420"/>
  <rect class="scanlines" width="1600" height="420" opacity="0.25"/>

  <!-- Matrix rain columns (denser, single-character drops; tails doubled in length) -->
  <g class="rain">
    <!-- Per column pattern:
      <g class="col sN" style="animation-delay: Xs; transform: translateY(-100%);">
        <text x="X" y="0"    class="head" font-size="26">H</text>
        <text x="X" y="28"   font-size="22">Q</text>
        <text x="X" y="56"   font-size="22">ﾂ</text>
        <text x="X" y="84"   font-size="22">7</text>
        <text x="X" y="112"  font-size="22">A</text>
        <text x="X" y="140"  font-size="22">€</text>
        <text x="X" y="168"  font-size="22">ﾖ</text>
        <text x="X" y="196"  font-size="22">=</text>
      </g>
    -->

    <g class="col s2" style="animation-delay:.2s; transform:translateY(-100%)">
      <text x="40" y="0" class="head" font-size="26">7</text>
      <text x="40" y="28" font-size="22">N</text>
      <text x="40" y="56" font-size="22">ｱ</text>
      <text x="40" y="84" font-size="22">K</text>
      <text x="40" y="112" font-size="22">3</text>
      <text x="40" y="140" font-size="22">#</text>
      <text x="40" y="168" font-size="22">ﾖ</text>
      <text x="40" y="196" font-size="22">!</text>
    </g>

    <g class="col s4" style="animation-delay:1s; transform:translateY(-120%)">
      <text x="90" y="0" class="head" font-size="26">A</text>
      <text x="90" y="28" font-size="22">X</text>
      <text x="90" y="56" font-size="22">ﾂ</text>
      <text x="90" y="84" font-size="22">5</text>
      <text x="90" y="112" font-size="22">Z</text>
      <text x="90" y="140" font-size="22">€</text>
      <text x="90" y="168" font-size="22">Y</text>
      <text x="90" y="196" font-size="22">^</text>
    </g>

    <g class="col s1" style="animation-delay:.6s; transform:translateY(-90%)">
      <text x="140" y="0" class="head" font-size="26">3</text>
      <text x="140" y="28" font-size="22">B</text>
      <text x="140" y="56" font-size="22">ﾅ</text>
      <text x="140" y="84" font-size="22">2</text>
      <text x="140" y="112" font-size="22">Q</text>
      <text x="140" y="140" font-size="22">/</text>
      <text x="140" y="168" font-size="22">ﾘ</text>
      <text x="140" y="196" font-size="22">}</text>
    </g>

    <g class="col s5" style="animation-delay:1.4s; transform:translateY(-140%)">
      <text x="190" y="0" class="head" font-size="26">K</text>
      <text x="190" y="28" font-size="22">9</text>
      <text x="190" y="56" font-size="22">ﾑ</text>
      <text x="190" y="84" font-size="22">€</text>
      <text x="190" y="112" font-size="22">G</text>
      <text x="190" y="140" font-size="22">[</text>
      <text x="190" y="168" font-size="22">ﾊ</text>
      <text x="190" y="196" font-size="22">$</text>
    </g>

    <g class="col s3" style="animation-delay:.3s; transform:translateY(-110%)">
      <text x="240" y="0" class="head" font-size="26">Z</text>
      <text x="240" y="28" font-size="22">M</text>
      <text x="240" y="56" font-size="22">ﾍ</text>
      <text x="240" y="84" font-size="22">?</text>
      <text x="240" y="112" font-size="22">0</text>
      <text x="240" y="140" font-size="22">]</text>
      <text x="240" y="168" font-size="22">ﾇ</text>
      <text x="240" y="196" font-size="22">&amp;</text>
    </g>

    <g class="col s5" style="animation-delay:1.8s; transform:translateY(-130%)">
      <text x="290" y="0" class="head" font-size="26">1</text>
      <text x="290" y="28" font-size="22">Q</text>
      <text x="290" y="56" font-size="22">ﾗ</text>
      <text x="290" y="84" font-size="22">|</text>
      <text x="290" y="112" font-size="22">H</text>
      <text x="290" y="140" font-size="22">=</text>
      <text x="290" y="168" font-size="22">ﾖ</text>
      <text x="290" y="196" font-size="22">K</text>
    </g>

    <g class="col s2" style="animation-delay:.9s; transform:translateY(-100%)">
      <text x="340" y="0" class="head" font-size="26">G</text>
      <text x="340" y="28" font-size="22">E</text>
      <text x="340" y="56" font-size="22">ﾁ</text>
      <text x="340" y="84" font-size="22">%</text>
      <text x="340" y="112" font-size="22">Σ</text>
      <text x="340" y="140" font-size="22">/</text>
      <text x="340" y="168" font-size="22">ﾉ</text>
      <text x="340" y="196" font-size="22">Y</text>
    </g>

    <g class="col s4" style="animation-delay:1.6s; transform:translateY(-120%)">
      <text x="390" y="0" class="head" font-size="26">4</text>
      <text x="390" y="28" font-size="22">F</text>
      <text x="390" y="56" font-size="22">ﾓ</text>
      <text x="390" y="84" font-size="22">/</text>
      <text x="390" y="112" font-size="22">A</text>
      <text x="390" y="140" font-size="22">%</text>
      <text x="390" y="168" font-size="22">ﾕ</text>
      <text x="390" y="196" font-size="22">[</text>
    </g>

    <g class="col s1" style="animation-delay:.4s; transform:translateY(-105%)">
      <text x="440" y="0" class="head" font-size="26">R</text>
      <text x="440" y="28" font-size="22">C</text>
      <text x="440" y="56" font-size="22">ﾂ</text>
      <text x="440" y="84" font-size="22">\</text>
      <text x="440" y="112" font-size="22">9</text>
      <text x="440" y="140" font-size="22">€</text>
      <text x="440" y="168" font-size="22">ﾈ</text>
      <text x="440" y="196" font-size="22">!</text>
    </g>

    <g class="col s3" style="animation-delay:2.1s; transform:translateY(-135%)">
      <text x="490" y="0" class="head" font-size="26">8</text>
      <text x="490" y="28" font-size="22">V</text>
      <text x="490" y="56" font-size="22">ﾘ</text>
      <text x="490" y="84" font-size="22">€</text>
      <text x="490" y="112" font-size="22">L</text>
      <text x="490" y="140" font-size="22">^</text>
      <text x="490" y="168" font-size="22">ﾖ</text>
      <text x="490" y="196" font-size="22">0</text>
    </g>

    <g class="col s5" style="animation-delay:1.2s; transform:translateY(-125%)">
      <text x="540" y="0" class="head" font-size="26">M</text>
      <text x="540" y="28" font-size="22">6</text>
      <text x="540" y="56" font-size="22">ﾊ</text>
      <text x="540" y="84" font-size="22">~</text>
      <text x="540" y="112" font-size="22">X</text>
      <text x="540" y="140" font-size="22">+</text>
      <text x="540" y="168" font-size="22">ﾅ</text>
      <text x="540" y="196" font-size="22">]</text>
    </g>

    <g class="col s2" style="animation-delay:.1s; transform:translateY(-95%)">
      <text x="590" y="0" class="head" font-size="26">2</text>
      <text x="590" y="28" font-size="22">Z</text>
      <text x="590" y="56" font-size="22">ﾏ</text>
      <text x="590" y="84" font-size="22">&amp;</text>
      <text x="590" y="112" font-size="22">R</text>
      <text x="590" y="140" font-size="22">/</text>
      <text x="590" y="168" font-size="22">ﾘ</text>
      <text x="590" y="196" font-size="22">$</text>
    </g>

    <g class="col s4" style="animation-delay:.75s; transform:translateY(-118%)">
      <text x="640" y="0" class="head" font-size="26">Y</text>
      <text x="640" y="28" font-size="22">7</text>
      <text x="640" y="56" font-size="22">ﾘ</text>
      <text x="640" y="84" font-size="22">$</text>
      <text x="640" y="112" font-size="22">G</text>
      <text x="640" y="140" font-size="22">}</text>
      <text x="640" y="168" font-size="22">ﾊ</text>
      <text x="640" y="196" font-size="22">=</text>
    </g>

    <g class="col s5" style="animation-delay:1.9s; transform:translateY(-145%)">
      <text x="690" y="0" class="head" font-size="26">5</text>
      <text x="690" y="28" font-size="22">K</text>
      <text x="690" y="56" font-size="22">ﾖ</text>
      <text x="690" y="84" font-size="22">=</text>
      <text x="690" y="112" font-size="22">E</text>
      <text x="690" y="140" font-size="22">[</text>
      <text x="690" y="168" font-size="22">ﾇ</text>
      <text x="690" y="196" font-size="22">!</text>
    </g>

    <g class="col s3" style="animation-delay:.5s; transform:translateY(-112%)">
      <text x="740" y="0" class="head" font-size="26">H</text>
      <text x="740" y="28" font-size="22">Z</text>
      <text x="740" y="56" font-size="22">ﾔ</text>
      <text x="740" y="84" font-size="22">[</text>
      <text x="740" y="112" font-size="22">P</text>
      <text x="740" y="140" font-size="22">#</text>
      <text x="740" y="168" font-size="22">ﾘ</text>
      <text x="740" y="196" font-size="22">&amp;</text>
    </g>

    <g class="col s1" style="animation-delay:1.3s; transform:translateY(-98%)">
      <text x="790" y="0" class="head" font-size="26">0</text>
      <text x="790" y="28" font-size="22">P</text>
      <text x="790" y="56" font-size="22">ﾍ</text>
      <text x="790" y="84" font-size="22">€</text>
      <text x="790" y="112" font-size="22">M</text>
      <text x="790" y="140" font-size="22">/</text>
      <text x="790" y="168" font-size="22">ﾁ</text>
      <text x="790" y="196" font-size="22">^</text>
    </g>

    <g class="col s5" style="animation-delay:2.2s; transform:translateY(-140%)">
      <text x="840" y="0" class="head" font-size="26">V</text>
      <text x="840" y="28" font-size="22">4</text>
      <text x="840" y="56" font-size="22">ﾌ</text>
      <text x="840" y="84" font-size="22">/</text>
      <text x="840" y="112" font-size="22">Z</text>
      <text x="840" y="140" font-size="22">}</text>
      <text x="840" y="168" font-size="22">ﾈ</text>
      <text x="840" y="196" font-size="22">%</text>
    </g>

    <g class="col s2" style="animation-delay:.25s; transform:translateY(-100%)">
      <text x="890" y="0" class="head" font-size="26">A</text>
      <text x="890" y="28" font-size="22">3</text>
      <text x="890" y="56" font-size="22">ﾔ</text>
      <text x="890" y="84" font-size="22">Ω</text>
      <text x="890" y="112" font-size="22">Q</text>
      <text x="890" y="140" font-size="22">[</text>
      <text x="890" y="168" font-size="22">ﾖ</text>
      <text x="890" y="196" font-size="22">0</text>
    </g>

    <g class="col s4" style="animation-delay:1.1s; transform:translateY(-120%)">
      <text x="940" y="0" class="head" font-size="26">3</text>
      <text x="940" y="28" font-size="22">8</text>
      <text x="940" y="56" font-size="22">ﾅ</text>
      <text x="940" y="84" font-size="22">]</text>
      <text x="940" y="112" font-size="22">E</text>
      <text x="940" y="140" font-size="22">/</text>
      <text x="940" y="168" font-size="22">ﾑ</text>
      <text x="940" y="196" font-size="22">$</text>
    </g>

    <g class="col s5" style="animation-delay:1.7s; transform:translateY(-145%)">
      <text x="990" y="0" class="head" font-size="26">K</text>
      <text x="990" y="28" font-size="22">C</text>
      <text x="990" y="56" font-size="22">ﾕ</text>
      <text x="990" y="84" font-size="22">@</text>
      <text x="990" y="112" font-size="22">9</text>
      <text x="990" y="140" font-size="22">^</text>
      <text x="990" y="168" font-size="22">ﾖ</text>
      <text x="990" y="196" font-size="22">]</text>
    </g>

    <g class="col s3" style="animation-delay:.65s; transform:translateY(-112%)">
      <text x="1040" y="0" class="head" font-size="26">Z</text>
      <text x="1040" y="28" font-size="22">M</text>
      <text x="1040" y="56" font-size="22">ﾍ</text>
      <text x="1040" y="84" font-size="22">?</text>
      <text x="1040" y="112" font-size="22">G</text>
      <text x="1040" y="140" font-size="22">/</text>
      <text x="1040" y="168" font-size="22">ﾘ</text>
      <text x="1040" y="196" font-size="22">&amp;</text>
    </g>

    <g class="col s1" style="animation-delay:1.45s; transform:translateY(-98%)">
      <text x="1090" y="0" class="head" font-size="26">1</text>
      <text x="1090" y="28" font-size="22">Q</text>
      <text x="1090" y="56" font-size="22">ﾐ</text>
      <text x="1090" y="84" font-size="22">^</text>
      <text x="1090" y="112" font-size="22">R</text>
      <text x="1090" y="140" font-size="22">%</text>
      <text x="1090" y="168" font-size="22">ﾊ</text>
      <text x="1090" y="196" font-size="22">$</text>
    </g>

    <g class="col s5" style="animation-delay:.95s; transform:translateY(-128%)">
      <text x="1140" y="0" class="head" font-size="26">G</text>
      <text x="1140" y="28" font-size="22">9</text>
      <text x="1140" y="56" font-size="22">ﾁ</text>
      <text x="1140" y="84" font-size="22">%</text>
      <text x="1140" y="112" font-size="22">S</text>
      <text x="1140" y="140" font-size="22">+</text>
      <text x="1140" y="168" font-size="22">ﾈ</text>
      <text x="1140" y="196" font-size="22">[</text>
    </g>

    <g class="col s2" style="animation-delay:.35s; transform:translateY(-108%)">
      <text x="1190" y="0" class="head" font-size="26">4</text>
      <text x="1190" y="28" font-size="22">F</text>
      <text x="1190" y="56" font-size="22">ﾂ</text>
      <text x="1190" y="84" font-size="22">]</text>
      <text x="1190" y="112" font-size="22">0</text>
      <text x="1190" y="140" font-size="22">=</text>
      <text x="1190" y="168" font-size="22">ﾗ</text>
      <text x="1190" y="196" font-size="22">!</text>
    </g>

    <g class="col s4" style="animation-delay:1.25s; transform:translateY(-122%)">
      <text x="1240" y="0" class="head" font-size="26">R</text>
      <text x="1240" y="28" font-size="22">8</text>
      <text x="1240" y="56" font-size="22">ﾃ</text>
      <text x="1240" y="84" font-size="22">!</text>
      <text x="1240" y="112" font-size="22">W</text>
      <text x="1240" y="140" font-size="22">/</text>
      <text x="1240" y="168" font-size="22">ﾕ</text>
      <text x="1240" y="196" font-size="22">€</text>
    </g>

    <g class="col s5" style="animation-delay:1.95s; transform:translateY(-146%)">
      <text x="1290" y="0" class="head" font-size="26">8</text>
      <text x="1290" y="28" font-size="22">0</text>
      <text x="1290" y="56" font-size="22">ﾇ</text>
      <text x="1290" y="84" font-size="22">€</text>
      <text x="1290" y="112" font-size="22">D</text>
      <text x="1290" y="140" font-size="22">*</text>
      <text x="1290" y="168" font-size="22">ﾖ</text>
      <text x="1290" y="196" font-size="22">=</text>
    </g>

    <g class="col s3" style="animation-delay:.15s; transform:translateY(-112%)">
      <text x="1340" y="0" class="head" font-size="26">M</text>
      <text x="1340" y="28" font-size="22">6</text>
      <text x="1340" y="56" font-size="22">ﾈ</text>
      <text x="1340" y="84" font-size="22">~</text>
      <text x="1340" y="112" font-size="22">P</text>
      <text x="1340" y="140" font-size="22">[</text>
      <text x="1340" y="168" font-size="22">ﾘ</text>
      <text x="1340" y="196" font-size="22">&amp;</text>
    </g>

    <g class="col s1" style="animation-delay:.55s; transform:translateY(-100%)">
      <text x="1390" y="0" class="head" font-size="26">2</text>
      <text x="1390" y="28" font-size="22">Z</text>
      <text x="1390" y="56" font-size="22">ﾏ</text>
      <text x="1390" y="84" font-size="22">&amp;</text>
      <text x="1390" y="112" font-size="22">C</text>
      <text x="1390" y="140" font-size="22">/</text>
      <text x="1390" y="168" font-size="22">ﾊ</text>
      <text x="1390" y="196" font-size="22">$</text>
    </g>

    <g class="col s4" style="animation-delay:1.35s; transform:translateY(-120%)">
      <text x="1440" y="0" class="head" font-size="26">Y</text>
      <text x="1440" y="28" font-size="22">7</text>
      <text x="1440" y="56" font-size="22">ﾕ</text>
      <text x="1440" y="84" font-size="22">$</text>
      <text x="1440" y="112" font-size="22">B</text>
      <text x="1440" y="140" font-size="22">=</text>
      <text x="1440" y="168" font-size="22">ﾈ</text>
      <text x="1440" y="196" font-size="22">!</text>
    </g>

    <g class="col s2" style="animation-delay:.85s; transform:translateY(-100%)">
      <text x="1490" y="0" class="head" font-size="26">5</text>
      <text x="1490" y="28" font-size="22">K</text>
      <text x="1490" y="56" font-size="22">ﾖ</text>
      <text x="1490" y="84" font-size="22">=</text>
      <text x="1490" y="112" font-size="22">H</text>
      <text x="1490" y="140" font-size="22">#</text>
      <text x="1490" y="168" font-size="22">ﾘ</text>
      <text x="1490" y="196" font-size="22">?</text>
    </g>

    <g class="col s3" style="animation-delay:1.55s; transform:translateY(-110%)">
      <text x="1540" y="0" class="head" font-size="26">H</text>
      <text x="1540" y="28" font-size="22">Z</text>
      <text x="1540" y="56" font-size="22">ﾔ</text>
      <text x="1540" y="84" font-size="22">[</text>
      <text x="1540" y="112" font-size="22">T</text>
      <text x="1540" y="140" font-size="22">*</text>
      <text x="1540" y="168" font-size="22">ﾇ</text>
      <text x="1540" y="196" font-size="22">/</text>
    </g>
  </g>

  <!-- Title typing via clip-rect -->
<clipPath id="clip-title">
  <rect id="title-clip" x="150" y="138" width="0" height="72" rx="2"/>
</clipPath>
<text x="50%" y="45%" text-anchor="middle" class="title">
  <tspan clip-path="url(#clip-title)">Welcome to my profile!</tspan>
</text>

<!-- Cursor (keeps blinking) -->
<rect id="cursor-title" x="150" y="150" width="18" height="46" fill="#b4ffd8">
  <animate attributeName="opacity" values="1;0;1" dur="0.9s" repeatCount="indefinite"/>
</rect>

<!-- Animate typing: use href instead of xlink:href -->
<animate href="#title-clip" attributeName="width" values="0;1200" dur="4.2s" fill="freeze"/>
<animate href="#cursor-title" attributeName="x" values="150;1350" dur="4.2s" fill="freeze"/>

<!-- Subtitle -->
<clipPath id="clip-sub">
  <rect id="sub-clip" x="200" y="248" width="0" height="56" rx="2"/>
</clipPath>
<text x="50%" y="68%" text-anchor="middle" class="subtitle">
  <tspan clip-path="url(#clip-sub)">My interest within Data Science, ETL, and Creative Analytics.</tspan>
</text>

<!-- Cursor (keeps blinking) -->
<rect id="cursor-sub" x="200" y="236" width="14" height="40" fill="#b4ffd8">
  <animate attributeName="opacity" values="1;0;1" dur="1s" begin="0.4s" repeatCount="indefinite"/>
</rect>

<!-- Animate typing: use href -->
<animate href="#sub-clip" attributeName="width" values="0;1200" dur="5s" begin="0.6s" fill="freeze"/>
<animate href="#cursor-sub" attributeName="x" values="200;1400" dur="5s" begin="0.6s" fill="freeze"/>

</svg>
